M48
; DRILL file {KiCad 5.1.10} date Thu Jul  8 07:50:16 2021
; FORMAT={-:-/ absolute / metric / decimal}
; #@! TF.CreationDate,2021-07-08T07:50:16-06:00
; #@! TF.GenerationSoftware,Kicad,Pcbnew,5.1.10
; #@! TF.FileFunction,Plated,1,4,PTH
FMAT,2
METRIC
T1C0.400
T2C0.500
T3C0.950
T4C3.200
%
G90
G05
T1
X25.0Y-30.0
X25.0Y-35.0
X25.0Y-40.0
X25.0Y-45.0
X25.0Y-50.0
X25.0Y-55.0
X25.0Y-60.0
X25.0Y-65.0
X25.0Y-69.5
X25.5Y-78.0
X25.5Y-79.5
X30.0Y-25.0
X30.0Y-30.0
X30.0Y-35.0
X30.0Y-40.0
X30.0Y-45.0
X30.0Y-50.0
X30.0Y-55.0
X30.0Y-60.0
X30.0Y-65.0
X30.0Y-69.5
X35.0Y-25.0
X35.0Y-30.0
X35.0Y-35.0
X35.0Y-40.0
X35.0Y-87.5
X40.0Y-25.0
X40.0Y-30.0
X40.0Y-35.0
X40.0Y-40.0
X41.65Y-68.55
X42.0Y-75.0
X42.0Y-90.0
X44.5Y-90.0
X45.5Y-67.75
X46.0Y-44.0
X46.5Y-67.75
X47.0Y-39.0
X47.0Y-90.0
X48.0Y-39.0
X48.0Y-44.0
X48.0Y-59.0
X49.0Y-44.0
X50.3Y-51.05
X50.35Y-78.8
X50.5Y-76.0
X50.9Y-68.85
X51.0Y-44.0
X51.0Y-49.5
X51.0Y-82.6
X52.0Y-90.0
X52.5Y-49.5
X52.55Y-71.35
X52.6Y-70.35
X52.6Y-78.8
X53.0Y-33.0
X53.0Y-39.0
X53.0Y-44.0
X54.5Y-69.55
X54.5Y-90.0
X55.0Y-84.0
X55.5Y-71.6
X56.193Y-49.193
X58.25Y-68.65
X59.0Y-74.0
X59.7Y-78.95
X60.5Y-50.093
X62.0Y-41.0
X62.0Y-44.5
X63.625Y-68.35
X63.625Y-78.5
X64.75Y-68.25
X64.8Y-78.45
X65.0Y-25.0
X65.0Y-30.0
X65.0Y-35.0
X65.0Y-40.5
X66.0Y-49.5
X70.0Y-25.0
X70.0Y-30.0
X70.0Y-35.0
X70.0Y-40.5
X70.0Y-45.0
X71.0Y-54.5
X71.5Y-55.5
X72.75Y-56.75
X75.0Y-25.0
X75.0Y-30.0
X75.0Y-35.0
X75.0Y-40.0
X75.0Y-45.0
X75.0Y-65.0
X75.0Y-70.0
X75.0Y-75.0
X80.0Y-30.0
X80.0Y-35.0
X80.0Y-40.0
X80.0Y-45.0
X80.0Y-65.0
X80.0Y-70.0
X80.0Y-75.0
X80.0Y-80.0
X81.0Y-48.5
X81.0Y-61.75
X85.0Y-65.0
X85.0Y-70.0
X85.0Y-75.0
X85.0Y-80.0
X85.0Y-85.0
X85.5Y-30.0
X85.5Y-35.0
X85.5Y-40.0
X85.5Y-45.0
X85.5Y-48.5
X85.5Y-62.0
X86.5Y-55.75
X86.5Y-57.75
T2
X22.6Y-25.0
X22.6Y-90.0
X23.303Y-23.303
X23.303Y-26.697
X23.303Y-88.303
X23.303Y-91.697
X25.0Y-22.6
X25.0Y-27.4
X25.0Y-87.6
X25.0Y-92.4
X26.697Y-23.303
X26.697Y-26.697
X26.697Y-88.303
X26.697Y-91.697
X27.4Y-25.0
X27.4Y-90.0
X82.6Y-90.0
X83.303Y-88.303
X83.303Y-91.697
X83.6Y-25.0
X84.303Y-23.303
X84.303Y-26.697
X85.0Y-87.6
X85.0Y-92.4
X86.0Y-22.6
X86.0Y-27.4
X86.697Y-88.303
X86.697Y-91.697
X87.4Y-90.0
X87.697Y-23.303
X87.697Y-26.697
X88.4Y-25.0
T3
X39.45Y-91.8
X41.95Y-91.8
X44.45Y-91.8
X46.5Y-26.0
X46.95Y-91.8
X49.0Y-26.0
X49.45Y-91.8
X51.5Y-26.0
X51.95Y-91.8
X54.0Y-26.0
X54.45Y-91.8
X56.5Y-26.0
X56.95Y-91.8
X59.0Y-26.0
X59.45Y-91.8
X61.95Y-91.8
X64.45Y-91.8
X66.95Y-91.8
X73.45Y-91.8
X75.95Y-91.8
X78.45Y-91.8
T4
X25.0Y-25.0
X25.0Y-90.0
X85.0Y-90.0
X86.0Y-25.0
T0
M30
