%TF.GenerationSoftware,KiCad,Pcbnew,5.1.10*%
%TF.CreationDate,2021-07-08T07:49:19-06:00*%
%TF.ProjectId,miata-underglow,6d696174-612d-4756-9e64-6572676c6f77,rev?*%
%TF.SameCoordinates,Original*%
%TF.FileFunction,Soldermask,Top*%
%TF.FilePolarity,Negative*%
%FSLAX46Y46*%
G04 Gerber Fmt 4.6, Leading zero omitted, Abs format (unit mm)*
G04 Created by KiCad (PCBNEW 5.1.10) date 2021-07-08 07:49:19*
%MOMM*%
%LPD*%
G01*
G04 APERTURE LIST*
%ADD10C,0.800000*%
%ADD11C,6.400000*%
%ADD12R,1.500000X0.800000*%
%ADD13R,2.050000X1.500000*%
%ADD14O,1.700000X1.950000*%
%ADD15C,0.100000*%
%ADD16R,0.900000X0.800000*%
%ADD17R,1.500000X2.000000*%
%ADD18R,3.800000X2.000000*%
%ADD19R,5.000000X5.000000*%
%ADD20R,0.900000X2.000000*%
%ADD21R,2.000000X0.900000*%
%ADD22R,0.450000X1.750000*%
G04 APERTURE END LIST*
D10*
X86697056Y-88302944D03*
X85000000Y-87600000D03*
X83302944Y-88302944D03*
X82600000Y-90000000D03*
X83302944Y-91697056D03*
X85000000Y-92400000D03*
X86697056Y-91697056D03*
X87400000Y-90000000D03*
D11*
X85000000Y-90000000D03*
D10*
X26697056Y-88302944D03*
X25000000Y-87600000D03*
X23302944Y-88302944D03*
X22600000Y-90000000D03*
X23302944Y-91697056D03*
X25000000Y-92400000D03*
X26697056Y-91697056D03*
X27400000Y-90000000D03*
D11*
X25000000Y-90000000D03*
D10*
X87697056Y-23302944D03*
X86000000Y-22600000D03*
X84302944Y-23302944D03*
X83600000Y-25000000D03*
X84302944Y-26697056D03*
X86000000Y-27400000D03*
X87697056Y-26697056D03*
X88400000Y-25000000D03*
D11*
X86000000Y-25000000D03*
D10*
X26697056Y-23302944D03*
X25000000Y-22600000D03*
X23302944Y-23302944D03*
X22600000Y-25000000D03*
X23302944Y-26697056D03*
X25000000Y-27400000D03*
X26697056Y-26697056D03*
X27400000Y-25000000D03*
D11*
X25000000Y-25000000D03*
G36*
G01*
X42900002Y-83200000D02*
X42050000Y-83200000D01*
G75*
G02*
X41800001Y-82950001I0J249999D01*
G01*
X41800001Y-82049999D01*
G75*
G02*
X42050000Y-81800000I249999J0D01*
G01*
X42900002Y-81800000D01*
G75*
G02*
X43150001Y-82049999I0J-249999D01*
G01*
X43150001Y-82950001D01*
G75*
G02*
X42900002Y-83200000I-249999J0D01*
G01*
G37*
G36*
G01*
X42900002Y-85900000D02*
X42050000Y-85900000D01*
G75*
G02*
X41800001Y-85650001I0J249999D01*
G01*
X41800001Y-84749999D01*
G75*
G02*
X42050000Y-84500000I249999J0D01*
G01*
X42900002Y-84500000D01*
G75*
G02*
X43150001Y-84749999I0J-249999D01*
G01*
X43150001Y-85650001D01*
G75*
G02*
X42900002Y-85900000I-249999J0D01*
G01*
G37*
G36*
G01*
X32474999Y-77050000D02*
X33325001Y-77050000D01*
G75*
G02*
X33575000Y-77299999I0J-249999D01*
G01*
X33575000Y-78200001D01*
G75*
G02*
X33325001Y-78450000I-249999J0D01*
G01*
X32474999Y-78450000D01*
G75*
G02*
X32225000Y-78200001I0J249999D01*
G01*
X32225000Y-77299999D01*
G75*
G02*
X32474999Y-77050000I249999J0D01*
G01*
G37*
G36*
G01*
X32474999Y-79750000D02*
X33325001Y-79750000D01*
G75*
G02*
X33575000Y-79999999I0J-249999D01*
G01*
X33575000Y-80900001D01*
G75*
G02*
X33325001Y-81150000I-249999J0D01*
G01*
X32474999Y-81150000D01*
G75*
G02*
X32225000Y-80900001I0J249999D01*
G01*
X32225000Y-79999999D01*
G75*
G02*
X32474999Y-79750000I249999J0D01*
G01*
G37*
G36*
G01*
X33325002Y-85825000D02*
X32475000Y-85825000D01*
G75*
G02*
X32225001Y-85575001I0J249999D01*
G01*
X32225001Y-84674999D01*
G75*
G02*
X32475000Y-84425000I249999J0D01*
G01*
X33325002Y-84425000D01*
G75*
G02*
X33575001Y-84674999I0J-249999D01*
G01*
X33575001Y-85575001D01*
G75*
G02*
X33325002Y-85825000I-249999J0D01*
G01*
G37*
G36*
G01*
X33325002Y-83125000D02*
X32475000Y-83125000D01*
G75*
G02*
X32225001Y-82875001I0J249999D01*
G01*
X32225001Y-81974999D01*
G75*
G02*
X32475000Y-81725000I249999J0D01*
G01*
X33325002Y-81725000D01*
G75*
G02*
X33575001Y-81974999I0J-249999D01*
G01*
X33575001Y-82875001D01*
G75*
G02*
X33325002Y-83125000I-249999J0D01*
G01*
G37*
G36*
G01*
X42024999Y-79850000D02*
X42875001Y-79850000D01*
G75*
G02*
X43125000Y-80099999I0J-249999D01*
G01*
X43125000Y-81000001D01*
G75*
G02*
X42875001Y-81250000I-249999J0D01*
G01*
X42024999Y-81250000D01*
G75*
G02*
X41775000Y-81000001I0J249999D01*
G01*
X41775000Y-80099999D01*
G75*
G02*
X42024999Y-79850000I249999J0D01*
G01*
G37*
G36*
G01*
X42024999Y-77150000D02*
X42875001Y-77150000D01*
G75*
G02*
X43125000Y-77399999I0J-249999D01*
G01*
X43125000Y-78300001D01*
G75*
G02*
X42875001Y-78550000I-249999J0D01*
G01*
X42024999Y-78550000D01*
G75*
G02*
X41775000Y-78300001I0J249999D01*
G01*
X41775000Y-77399999D01*
G75*
G02*
X42024999Y-77150000I249999J0D01*
G01*
G37*
G36*
G01*
X72814999Y-55970000D02*
X72814999Y-55630000D01*
G75*
G02*
X72954999Y-55490000I140000J0D01*
G01*
X73234999Y-55490000D01*
G75*
G02*
X73374999Y-55630000I0J-140000D01*
G01*
X73374999Y-55970000D01*
G75*
G02*
X73234999Y-56110000I-140000J0D01*
G01*
X72954999Y-56110000D01*
G75*
G02*
X72814999Y-55970000I0J140000D01*
G01*
G37*
G36*
G01*
X73774999Y-55970000D02*
X73774999Y-55630000D01*
G75*
G02*
X73914999Y-55490000I140000J0D01*
G01*
X74194999Y-55490000D01*
G75*
G02*
X74334999Y-55630000I0J-140000D01*
G01*
X74334999Y-55970000D01*
G75*
G02*
X74194999Y-56110000I-140000J0D01*
G01*
X73914999Y-56110000D01*
G75*
G02*
X73774999Y-55970000I0J140000D01*
G01*
G37*
G36*
G01*
X46255000Y-66570000D02*
X46255000Y-66230000D01*
G75*
G02*
X46395000Y-66090000I140000J0D01*
G01*
X46675000Y-66090000D01*
G75*
G02*
X46815000Y-66230000I0J-140000D01*
G01*
X46815000Y-66570000D01*
G75*
G02*
X46675000Y-66710000I-140000J0D01*
G01*
X46395000Y-66710000D01*
G75*
G02*
X46255000Y-66570000I0J140000D01*
G01*
G37*
G36*
G01*
X45295000Y-66570000D02*
X45295000Y-66230000D01*
G75*
G02*
X45435000Y-66090000I140000J0D01*
G01*
X45715000Y-66090000D01*
G75*
G02*
X45855000Y-66230000I0J-140000D01*
G01*
X45855000Y-66570000D01*
G75*
G02*
X45715000Y-66710000I-140000J0D01*
G01*
X45435000Y-66710000D01*
G75*
G02*
X45295000Y-66570000I0J140000D01*
G01*
G37*
G36*
G01*
X54330000Y-71350000D02*
X54670000Y-71350000D01*
G75*
G02*
X54810000Y-71490000I0J-140000D01*
G01*
X54810000Y-71770000D01*
G75*
G02*
X54670000Y-71910000I-140000J0D01*
G01*
X54330000Y-71910000D01*
G75*
G02*
X54190000Y-71770000I0J140000D01*
G01*
X54190000Y-71490000D01*
G75*
G02*
X54330000Y-71350000I140000J0D01*
G01*
G37*
G36*
G01*
X54330000Y-70390000D02*
X54670000Y-70390000D01*
G75*
G02*
X54810000Y-70530000I0J-140000D01*
G01*
X54810000Y-70810000D01*
G75*
G02*
X54670000Y-70950000I-140000J0D01*
G01*
X54330000Y-70950000D01*
G75*
G02*
X54190000Y-70810000I0J140000D01*
G01*
X54190000Y-70530000D01*
G75*
G02*
X54330000Y-70390000I140000J0D01*
G01*
G37*
G36*
G01*
X49945000Y-83960000D02*
X49605000Y-83960000D01*
G75*
G02*
X49465000Y-83820000I0J140000D01*
G01*
X49465000Y-83540000D01*
G75*
G02*
X49605000Y-83400000I140000J0D01*
G01*
X49945000Y-83400000D01*
G75*
G02*
X50085000Y-83540000I0J-140000D01*
G01*
X50085000Y-83820000D01*
G75*
G02*
X49945000Y-83960000I-140000J0D01*
G01*
G37*
G36*
G01*
X49945000Y-83000000D02*
X49605000Y-83000000D01*
G75*
G02*
X49465000Y-82860000I0J140000D01*
G01*
X49465000Y-82580000D01*
G75*
G02*
X49605000Y-82440000I140000J0D01*
G01*
X49945000Y-82440000D01*
G75*
G02*
X50085000Y-82580000I0J-140000D01*
G01*
X50085000Y-82860000D01*
G75*
G02*
X49945000Y-83000000I-140000J0D01*
G01*
G37*
G36*
G01*
X53995000Y-83400000D02*
X53655000Y-83400000D01*
G75*
G02*
X53515000Y-83260000I0J140000D01*
G01*
X53515000Y-82980000D01*
G75*
G02*
X53655000Y-82840000I140000J0D01*
G01*
X53995000Y-82840000D01*
G75*
G02*
X54135000Y-82980000I0J-140000D01*
G01*
X54135000Y-83260000D01*
G75*
G02*
X53995000Y-83400000I-140000J0D01*
G01*
G37*
G36*
G01*
X53995000Y-84360000D02*
X53655000Y-84360000D01*
G75*
G02*
X53515000Y-84220000I0J140000D01*
G01*
X53515000Y-83940000D01*
G75*
G02*
X53655000Y-83800000I140000J0D01*
G01*
X53995000Y-83800000D01*
G75*
G02*
X54135000Y-83940000I0J-140000D01*
G01*
X54135000Y-84220000D01*
G75*
G02*
X53995000Y-84360000I-140000J0D01*
G01*
G37*
G36*
G01*
X51631250Y-35725000D02*
X51118750Y-35725000D01*
G75*
G02*
X50900000Y-35506250I0J218750D01*
G01*
X50900000Y-35068750D01*
G75*
G02*
X51118750Y-34850000I218750J0D01*
G01*
X51631250Y-34850000D01*
G75*
G02*
X51850000Y-35068750I0J-218750D01*
G01*
X51850000Y-35506250D01*
G75*
G02*
X51631250Y-35725000I-218750J0D01*
G01*
G37*
G36*
G01*
X51631250Y-37300000D02*
X51118750Y-37300000D01*
G75*
G02*
X50900000Y-37081250I0J218750D01*
G01*
X50900000Y-36643750D01*
G75*
G02*
X51118750Y-36425000I218750J0D01*
G01*
X51631250Y-36425000D01*
G75*
G02*
X51850000Y-36643750I0J-218750D01*
G01*
X51850000Y-37081250D01*
G75*
G02*
X51631250Y-37300000I-218750J0D01*
G01*
G37*
G36*
G01*
X49981249Y-37300000D02*
X49468749Y-37300000D01*
G75*
G02*
X49249999Y-37081250I0J218750D01*
G01*
X49249999Y-36643750D01*
G75*
G02*
X49468749Y-36425000I218750J0D01*
G01*
X49981249Y-36425000D01*
G75*
G02*
X50199999Y-36643750I0J-218750D01*
G01*
X50199999Y-37081250D01*
G75*
G02*
X49981249Y-37300000I-218750J0D01*
G01*
G37*
G36*
G01*
X49981249Y-35725000D02*
X49468749Y-35725000D01*
G75*
G02*
X49249999Y-35506250I0J218750D01*
G01*
X49249999Y-35068750D01*
G75*
G02*
X49468749Y-34850000I218750J0D01*
G01*
X49981249Y-34850000D01*
G75*
G02*
X50199999Y-35068750I0J-218750D01*
G01*
X50199999Y-35506250D01*
G75*
G02*
X49981249Y-35725000I-218750J0D01*
G01*
G37*
D12*
X84750000Y-52350000D03*
X84750000Y-53450000D03*
X84750000Y-54550000D03*
X84750000Y-55650000D03*
X84750000Y-56750000D03*
X84750000Y-57850000D03*
X84750000Y-58950000D03*
X84750000Y-60050000D03*
D13*
X87350000Y-48675000D03*
X79050000Y-48675000D03*
X79050000Y-62425000D03*
X87350000Y-62425000D03*
G36*
G01*
X59850000Y-25275000D02*
X59850000Y-26725000D01*
G75*
G02*
X59600000Y-26975000I-250000J0D01*
G01*
X58400000Y-26975000D01*
G75*
G02*
X58150000Y-26725000I0J250000D01*
G01*
X58150000Y-25275000D01*
G75*
G02*
X58400000Y-25025000I250000J0D01*
G01*
X59600000Y-25025000D01*
G75*
G02*
X59850000Y-25275000I0J-250000D01*
G01*
G37*
D14*
X56500000Y-26000000D03*
X54000000Y-26000000D03*
X51500000Y-26000000D03*
X49000000Y-26000000D03*
X46500000Y-26000000D03*
G36*
G01*
X38600000Y-92525000D02*
X38600000Y-91075000D01*
G75*
G02*
X38850000Y-90825000I250000J0D01*
G01*
X40050000Y-90825000D01*
G75*
G02*
X40300000Y-91075000I0J-250000D01*
G01*
X40300000Y-92525000D01*
G75*
G02*
X40050000Y-92775000I-250000J0D01*
G01*
X38850000Y-92775000D01*
G75*
G02*
X38600000Y-92525000I0J250000D01*
G01*
G37*
X41950000Y-91800000D03*
X44450000Y-91800000D03*
X46950000Y-91800000D03*
X49450000Y-91800000D03*
X51950000Y-91800000D03*
X54450000Y-91800000D03*
X56950000Y-91800000D03*
X59450000Y-91800000D03*
X61950000Y-91800000D03*
X64450000Y-91800000D03*
X66950000Y-91800000D03*
G36*
G01*
X72600000Y-92525000D02*
X72600000Y-91075000D01*
G75*
G02*
X72850000Y-90825000I250000J0D01*
G01*
X74050000Y-90825000D01*
G75*
G02*
X74300000Y-91075000I0J-250000D01*
G01*
X74300000Y-92525000D01*
G75*
G02*
X74050000Y-92775000I-250000J0D01*
G01*
X72850000Y-92775000D01*
G75*
G02*
X72600000Y-92525000I0J250000D01*
G01*
G37*
X75950000Y-91800000D03*
X78450000Y-91800000D03*
D15*
G36*
X73000000Y-85425000D02*
G01*
X72500000Y-85425000D01*
X72500000Y-85424398D01*
X72475466Y-85424398D01*
X72426635Y-85419588D01*
X72378510Y-85410016D01*
X72331555Y-85395772D01*
X72286222Y-85376995D01*
X72242949Y-85353864D01*
X72202150Y-85326604D01*
X72164221Y-85295476D01*
X72129524Y-85260779D01*
X72098396Y-85222850D01*
X72071136Y-85182051D01*
X72048005Y-85138778D01*
X72029228Y-85093445D01*
X72014984Y-85046490D01*
X72005412Y-84998365D01*
X72000602Y-84949534D01*
X72000602Y-84925000D01*
X72000000Y-84925000D01*
X72000000Y-84425000D01*
X72000602Y-84425000D01*
X72000602Y-84400466D01*
X72005412Y-84351635D01*
X72014984Y-84303510D01*
X72029228Y-84256555D01*
X72048005Y-84211222D01*
X72071136Y-84167949D01*
X72098396Y-84127150D01*
X72129524Y-84089221D01*
X72164221Y-84054524D01*
X72202150Y-84023396D01*
X72242949Y-83996136D01*
X72286222Y-83973005D01*
X72331555Y-83954228D01*
X72378510Y-83939984D01*
X72426635Y-83930412D01*
X72475466Y-83925602D01*
X72500000Y-83925602D01*
X72500000Y-83925000D01*
X73000000Y-83925000D01*
X73000000Y-85425000D01*
G37*
G36*
X73800000Y-83925602D02*
G01*
X73824534Y-83925602D01*
X73873365Y-83930412D01*
X73921490Y-83939984D01*
X73968445Y-83954228D01*
X74013778Y-83973005D01*
X74057051Y-83996136D01*
X74097850Y-84023396D01*
X74135779Y-84054524D01*
X74170476Y-84089221D01*
X74201604Y-84127150D01*
X74228864Y-84167949D01*
X74251995Y-84211222D01*
X74270772Y-84256555D01*
X74285016Y-84303510D01*
X74294588Y-84351635D01*
X74299398Y-84400466D01*
X74299398Y-84425000D01*
X74300000Y-84425000D01*
X74300000Y-84925000D01*
X74299398Y-84925000D01*
X74299398Y-84949534D01*
X74294588Y-84998365D01*
X74285016Y-85046490D01*
X74270772Y-85093445D01*
X74251995Y-85138778D01*
X74228864Y-85182051D01*
X74201604Y-85222850D01*
X74170476Y-85260779D01*
X74135779Y-85295476D01*
X74097850Y-85326604D01*
X74057051Y-85353864D01*
X74013778Y-85376995D01*
X73968445Y-85395772D01*
X73921490Y-85410016D01*
X73873365Y-85419588D01*
X73824534Y-85424398D01*
X73800000Y-85424398D01*
X73800000Y-85425000D01*
X73300000Y-85425000D01*
X73300000Y-83925000D01*
X73800000Y-83925000D01*
X73800000Y-83925602D01*
G37*
D16*
X45000000Y-36500000D03*
X43000000Y-37450000D03*
X43000000Y-35550000D03*
X43000000Y-32050000D03*
X43000000Y-33950000D03*
X45000000Y-33000000D03*
G36*
G01*
X46685000Y-34280000D02*
X46315000Y-34280000D01*
G75*
G02*
X46180000Y-34145000I0J135000D01*
G01*
X46180000Y-33875000D01*
G75*
G02*
X46315000Y-33740000I135000J0D01*
G01*
X46685000Y-33740000D01*
G75*
G02*
X46820000Y-33875000I0J-135000D01*
G01*
X46820000Y-34145000D01*
G75*
G02*
X46685000Y-34280000I-135000J0D01*
G01*
G37*
G36*
G01*
X46685000Y-33260000D02*
X46315000Y-33260000D01*
G75*
G02*
X46180000Y-33125000I0J135000D01*
G01*
X46180000Y-32855000D01*
G75*
G02*
X46315000Y-32720000I135000J0D01*
G01*
X46685000Y-32720000D01*
G75*
G02*
X46820000Y-32855000I0J-135000D01*
G01*
X46820000Y-33125000D01*
G75*
G02*
X46685000Y-33260000I-135000J0D01*
G01*
G37*
G36*
G01*
X46315000Y-35740000D02*
X46685000Y-35740000D01*
G75*
G02*
X46820000Y-35875000I0J-135000D01*
G01*
X46820000Y-36145000D01*
G75*
G02*
X46685000Y-36280000I-135000J0D01*
G01*
X46315000Y-36280000D01*
G75*
G02*
X46180000Y-36145000I0J135000D01*
G01*
X46180000Y-35875000D01*
G75*
G02*
X46315000Y-35740000I135000J0D01*
G01*
G37*
G36*
G01*
X46315000Y-34720000D02*
X46685000Y-34720000D01*
G75*
G02*
X46820000Y-34855000I0J-135000D01*
G01*
X46820000Y-35125000D01*
G75*
G02*
X46685000Y-35260000I-135000J0D01*
G01*
X46315000Y-35260000D01*
G75*
G02*
X46180000Y-35125000I0J135000D01*
G01*
X46180000Y-34855000D01*
G75*
G02*
X46315000Y-34720000I135000J0D01*
G01*
G37*
G36*
G01*
X51100000Y-33450000D02*
X51650000Y-33450000D01*
G75*
G02*
X51850000Y-33650000I0J-200000D01*
G01*
X51850000Y-34050000D01*
G75*
G02*
X51650000Y-34250000I-200000J0D01*
G01*
X51100000Y-34250000D01*
G75*
G02*
X50900000Y-34050000I0J200000D01*
G01*
X50900000Y-33650000D01*
G75*
G02*
X51100000Y-33450000I200000J0D01*
G01*
G37*
G36*
G01*
X51100000Y-31800000D02*
X51650000Y-31800000D01*
G75*
G02*
X51850000Y-32000000I0J-200000D01*
G01*
X51850000Y-32400000D01*
G75*
G02*
X51650000Y-32600000I-200000J0D01*
G01*
X51100000Y-32600000D01*
G75*
G02*
X50900000Y-32400000I0J200000D01*
G01*
X50900000Y-32000000D01*
G75*
G02*
X51100000Y-31800000I200000J0D01*
G01*
G37*
G36*
G01*
X49450000Y-31800000D02*
X50000000Y-31800000D01*
G75*
G02*
X50200000Y-32000000I0J-200000D01*
G01*
X50200000Y-32400000D01*
G75*
G02*
X50000000Y-32600000I-200000J0D01*
G01*
X49450000Y-32600000D01*
G75*
G02*
X49250000Y-32400000I0J200000D01*
G01*
X49250000Y-32000000D01*
G75*
G02*
X49450000Y-31800000I200000J0D01*
G01*
G37*
G36*
G01*
X49450000Y-33450000D02*
X50000000Y-33450000D01*
G75*
G02*
X50200000Y-33650000I0J-200000D01*
G01*
X50200000Y-34050000D01*
G75*
G02*
X50000000Y-34250000I-200000J0D01*
G01*
X49450000Y-34250000D01*
G75*
G02*
X49250000Y-34050000I0J200000D01*
G01*
X49250000Y-33650000D01*
G75*
G02*
X49450000Y-33450000I200000J0D01*
G01*
G37*
G36*
G01*
X48810000Y-82985000D02*
X48440000Y-82985000D01*
G75*
G02*
X48305000Y-82850000I0J135000D01*
G01*
X48305000Y-82580000D01*
G75*
G02*
X48440000Y-82445000I135000J0D01*
G01*
X48810000Y-82445000D01*
G75*
G02*
X48945000Y-82580000I0J-135000D01*
G01*
X48945000Y-82850000D01*
G75*
G02*
X48810000Y-82985000I-135000J0D01*
G01*
G37*
G36*
G01*
X48810000Y-84005000D02*
X48440000Y-84005000D01*
G75*
G02*
X48305000Y-83870000I0J135000D01*
G01*
X48305000Y-83600000D01*
G75*
G02*
X48440000Y-83465000I135000J0D01*
G01*
X48810000Y-83465000D01*
G75*
G02*
X48945000Y-83600000I0J-135000D01*
G01*
X48945000Y-83870000D01*
G75*
G02*
X48810000Y-84005000I-135000J0D01*
G01*
G37*
G36*
G01*
X50085000Y-70785000D02*
X49715000Y-70785000D01*
G75*
G02*
X49580000Y-70650000I0J135000D01*
G01*
X49580000Y-70380000D01*
G75*
G02*
X49715000Y-70245000I135000J0D01*
G01*
X50085000Y-70245000D01*
G75*
G02*
X50220000Y-70380000I0J-135000D01*
G01*
X50220000Y-70650000D01*
G75*
G02*
X50085000Y-70785000I-135000J0D01*
G01*
G37*
G36*
G01*
X50085000Y-71805000D02*
X49715000Y-71805000D01*
G75*
G02*
X49580000Y-71670000I0J135000D01*
G01*
X49580000Y-71400000D01*
G75*
G02*
X49715000Y-71265000I135000J0D01*
G01*
X50085000Y-71265000D01*
G75*
G02*
X50220000Y-71400000I0J-135000D01*
G01*
X50220000Y-71670000D01*
G75*
G02*
X50085000Y-71805000I-135000J0D01*
G01*
G37*
D17*
X25825000Y-84850001D03*
X30425000Y-84850001D03*
X28125000Y-84850001D03*
D18*
X28125000Y-78550001D03*
G36*
G01*
X64025000Y-69750000D02*
X64225000Y-69750000D01*
G75*
G02*
X64325000Y-69850000I0J-100000D01*
G01*
X64325000Y-71125000D01*
G75*
G02*
X64225000Y-71225000I-100000J0D01*
G01*
X64025000Y-71225000D01*
G75*
G02*
X63925000Y-71125000I0J100000D01*
G01*
X63925000Y-69850000D01*
G75*
G02*
X64025000Y-69750000I100000J0D01*
G01*
G37*
G36*
G01*
X63375000Y-69750000D02*
X63575000Y-69750000D01*
G75*
G02*
X63675000Y-69850000I0J-100000D01*
G01*
X63675000Y-71125000D01*
G75*
G02*
X63575000Y-71225000I-100000J0D01*
G01*
X63375000Y-71225000D01*
G75*
G02*
X63275000Y-71125000I0J100000D01*
G01*
X63275000Y-69850000D01*
G75*
G02*
X63375000Y-69750000I100000J0D01*
G01*
G37*
G36*
G01*
X62725000Y-69750000D02*
X62925000Y-69750000D01*
G75*
G02*
X63025000Y-69850000I0J-100000D01*
G01*
X63025000Y-71125000D01*
G75*
G02*
X62925000Y-71225000I-100000J0D01*
G01*
X62725000Y-71225000D01*
G75*
G02*
X62625000Y-71125000I0J100000D01*
G01*
X62625000Y-69850000D01*
G75*
G02*
X62725000Y-69750000I100000J0D01*
G01*
G37*
G36*
G01*
X62075000Y-69750000D02*
X62275000Y-69750000D01*
G75*
G02*
X62375000Y-69850000I0J-100000D01*
G01*
X62375000Y-71125000D01*
G75*
G02*
X62275000Y-71225000I-100000J0D01*
G01*
X62075000Y-71225000D01*
G75*
G02*
X61975000Y-71125000I0J100000D01*
G01*
X61975000Y-69850000D01*
G75*
G02*
X62075000Y-69750000I100000J0D01*
G01*
G37*
G36*
G01*
X61425000Y-69750000D02*
X61625000Y-69750000D01*
G75*
G02*
X61725000Y-69850000I0J-100000D01*
G01*
X61725000Y-71125000D01*
G75*
G02*
X61625000Y-71225000I-100000J0D01*
G01*
X61425000Y-71225000D01*
G75*
G02*
X61325000Y-71125000I0J100000D01*
G01*
X61325000Y-69850000D01*
G75*
G02*
X61425000Y-69750000I100000J0D01*
G01*
G37*
G36*
G01*
X60775000Y-69750000D02*
X60975000Y-69750000D01*
G75*
G02*
X61075000Y-69850000I0J-100000D01*
G01*
X61075000Y-71125000D01*
G75*
G02*
X60975000Y-71225000I-100000J0D01*
G01*
X60775000Y-71225000D01*
G75*
G02*
X60675000Y-71125000I0J100000D01*
G01*
X60675000Y-69850000D01*
G75*
G02*
X60775000Y-69750000I100000J0D01*
G01*
G37*
G36*
G01*
X60125000Y-69750000D02*
X60325000Y-69750000D01*
G75*
G02*
X60425000Y-69850000I0J-100000D01*
G01*
X60425000Y-71125000D01*
G75*
G02*
X60325000Y-71225000I-100000J0D01*
G01*
X60125000Y-71225000D01*
G75*
G02*
X60025000Y-71125000I0J100000D01*
G01*
X60025000Y-69850000D01*
G75*
G02*
X60125000Y-69750000I100000J0D01*
G01*
G37*
G36*
G01*
X59475000Y-69750000D02*
X59675000Y-69750000D01*
G75*
G02*
X59775000Y-69850000I0J-100000D01*
G01*
X59775000Y-71125000D01*
G75*
G02*
X59675000Y-71225000I-100000J0D01*
G01*
X59475000Y-71225000D01*
G75*
G02*
X59375000Y-71125000I0J100000D01*
G01*
X59375000Y-69850000D01*
G75*
G02*
X59475000Y-69750000I100000J0D01*
G01*
G37*
G36*
G01*
X58825000Y-69750000D02*
X59025000Y-69750000D01*
G75*
G02*
X59125000Y-69850000I0J-100000D01*
G01*
X59125000Y-71125000D01*
G75*
G02*
X59025000Y-71225000I-100000J0D01*
G01*
X58825000Y-71225000D01*
G75*
G02*
X58725000Y-71125000I0J100000D01*
G01*
X58725000Y-69850000D01*
G75*
G02*
X58825000Y-69750000I100000J0D01*
G01*
G37*
G36*
G01*
X58175000Y-69750000D02*
X58375000Y-69750000D01*
G75*
G02*
X58475000Y-69850000I0J-100000D01*
G01*
X58475000Y-71125000D01*
G75*
G02*
X58375000Y-71225000I-100000J0D01*
G01*
X58175000Y-71225000D01*
G75*
G02*
X58075000Y-71125000I0J100000D01*
G01*
X58075000Y-69850000D01*
G75*
G02*
X58175000Y-69750000I100000J0D01*
G01*
G37*
G36*
G01*
X58175000Y-75475000D02*
X58375000Y-75475000D01*
G75*
G02*
X58475000Y-75575000I0J-100000D01*
G01*
X58475000Y-76850000D01*
G75*
G02*
X58375000Y-76950000I-100000J0D01*
G01*
X58175000Y-76950000D01*
G75*
G02*
X58075000Y-76850000I0J100000D01*
G01*
X58075000Y-75575000D01*
G75*
G02*
X58175000Y-75475000I100000J0D01*
G01*
G37*
G36*
G01*
X58825000Y-75475000D02*
X59025000Y-75475000D01*
G75*
G02*
X59125000Y-75575000I0J-100000D01*
G01*
X59125000Y-76850000D01*
G75*
G02*
X59025000Y-76950000I-100000J0D01*
G01*
X58825000Y-76950000D01*
G75*
G02*
X58725000Y-76850000I0J100000D01*
G01*
X58725000Y-75575000D01*
G75*
G02*
X58825000Y-75475000I100000J0D01*
G01*
G37*
G36*
G01*
X59475000Y-75475000D02*
X59675000Y-75475000D01*
G75*
G02*
X59775000Y-75575000I0J-100000D01*
G01*
X59775000Y-76850000D01*
G75*
G02*
X59675000Y-76950000I-100000J0D01*
G01*
X59475000Y-76950000D01*
G75*
G02*
X59375000Y-76850000I0J100000D01*
G01*
X59375000Y-75575000D01*
G75*
G02*
X59475000Y-75475000I100000J0D01*
G01*
G37*
G36*
G01*
X60125000Y-75475000D02*
X60325000Y-75475000D01*
G75*
G02*
X60425000Y-75575000I0J-100000D01*
G01*
X60425000Y-76850000D01*
G75*
G02*
X60325000Y-76950000I-100000J0D01*
G01*
X60125000Y-76950000D01*
G75*
G02*
X60025000Y-76850000I0J100000D01*
G01*
X60025000Y-75575000D01*
G75*
G02*
X60125000Y-75475000I100000J0D01*
G01*
G37*
G36*
G01*
X60775000Y-75475000D02*
X60975000Y-75475000D01*
G75*
G02*
X61075000Y-75575000I0J-100000D01*
G01*
X61075000Y-76850000D01*
G75*
G02*
X60975000Y-76950000I-100000J0D01*
G01*
X60775000Y-76950000D01*
G75*
G02*
X60675000Y-76850000I0J100000D01*
G01*
X60675000Y-75575000D01*
G75*
G02*
X60775000Y-75475000I100000J0D01*
G01*
G37*
G36*
G01*
X61425000Y-75475000D02*
X61625000Y-75475000D01*
G75*
G02*
X61725000Y-75575000I0J-100000D01*
G01*
X61725000Y-76850000D01*
G75*
G02*
X61625000Y-76950000I-100000J0D01*
G01*
X61425000Y-76950000D01*
G75*
G02*
X61325000Y-76850000I0J100000D01*
G01*
X61325000Y-75575000D01*
G75*
G02*
X61425000Y-75475000I100000J0D01*
G01*
G37*
G36*
G01*
X62075000Y-75475000D02*
X62275000Y-75475000D01*
G75*
G02*
X62375000Y-75575000I0J-100000D01*
G01*
X62375000Y-76850000D01*
G75*
G02*
X62275000Y-76950000I-100000J0D01*
G01*
X62075000Y-76950000D01*
G75*
G02*
X61975000Y-76850000I0J100000D01*
G01*
X61975000Y-75575000D01*
G75*
G02*
X62075000Y-75475000I100000J0D01*
G01*
G37*
G36*
G01*
X62725000Y-75475000D02*
X62925000Y-75475000D01*
G75*
G02*
X63025000Y-75575000I0J-100000D01*
G01*
X63025000Y-76850000D01*
G75*
G02*
X62925000Y-76950000I-100000J0D01*
G01*
X62725000Y-76950000D01*
G75*
G02*
X62625000Y-76850000I0J100000D01*
G01*
X62625000Y-75575000D01*
G75*
G02*
X62725000Y-75475000I100000J0D01*
G01*
G37*
G36*
G01*
X63375000Y-75475000D02*
X63575000Y-75475000D01*
G75*
G02*
X63675000Y-75575000I0J-100000D01*
G01*
X63675000Y-76850000D01*
G75*
G02*
X63575000Y-76950000I-100000J0D01*
G01*
X63375000Y-76950000D01*
G75*
G02*
X63275000Y-76850000I0J100000D01*
G01*
X63275000Y-75575000D01*
G75*
G02*
X63375000Y-75475000I100000J0D01*
G01*
G37*
G36*
G01*
X64025000Y-75475000D02*
X64225000Y-75475000D01*
G75*
G02*
X64325000Y-75575000I0J-100000D01*
G01*
X64325000Y-76850000D01*
G75*
G02*
X64225000Y-76950000I-100000J0D01*
G01*
X64025000Y-76950000D01*
G75*
G02*
X63925000Y-76850000I0J100000D01*
G01*
X63925000Y-75575000D01*
G75*
G02*
X64025000Y-75475000I100000J0D01*
G01*
G37*
X37725000Y-78575000D03*
D17*
X37725000Y-84875000D03*
X40025000Y-84875000D03*
X35425000Y-84875000D03*
D19*
X53095000Y-56600000D03*
D20*
X45595000Y-64100000D03*
X46865000Y-64100000D03*
X48135000Y-64100000D03*
X49405000Y-64100000D03*
X50675000Y-64100000D03*
X51945000Y-64100000D03*
X53215000Y-64100000D03*
X54485000Y-64100000D03*
X55755000Y-64100000D03*
X57025000Y-64100000D03*
X58295000Y-64100000D03*
X59565000Y-64100000D03*
X60835000Y-64100000D03*
X62105000Y-64100000D03*
D21*
X63105000Y-61315000D03*
X63105000Y-60045000D03*
X63105000Y-58775000D03*
X63105000Y-57505000D03*
X63105000Y-56235000D03*
X63105000Y-54965000D03*
X63105000Y-53695000D03*
X63105000Y-52425000D03*
X63105000Y-51155000D03*
X63105000Y-49885000D03*
D20*
X62105000Y-47100000D03*
X60835000Y-47100000D03*
X59565000Y-47100000D03*
X58295000Y-47100000D03*
X57025000Y-47100000D03*
X55755000Y-47100000D03*
X54485000Y-47100000D03*
X53215000Y-47100000D03*
X51945000Y-47100000D03*
X50675000Y-47100000D03*
X49405000Y-47100000D03*
X48135000Y-47100000D03*
X46865000Y-47100000D03*
X45595000Y-47100000D03*
D22*
X54479998Y-80525001D03*
X53829998Y-80525001D03*
X53179998Y-80525001D03*
X52529998Y-80525001D03*
X51879998Y-80525001D03*
X51229998Y-80525001D03*
X50579998Y-80525001D03*
X49929998Y-80525001D03*
X49279998Y-80525001D03*
X48629998Y-80525001D03*
X47979998Y-80525001D03*
X47329998Y-80525001D03*
X46679998Y-80525001D03*
X46029998Y-80525001D03*
X46029998Y-73325001D03*
X46679998Y-73325001D03*
X47329998Y-73325001D03*
X47979998Y-73325001D03*
X48629998Y-73325001D03*
X49279998Y-73325001D03*
X49929998Y-73325001D03*
X50579998Y-73325001D03*
X51229998Y-73325001D03*
X51879998Y-73325001D03*
X52529998Y-73325001D03*
X53179998Y-73325001D03*
X53829998Y-73325001D03*
X54479998Y-73325001D03*
G36*
G01*
X75225000Y-85275001D02*
X75225000Y-84024999D01*
G75*
G02*
X75474999Y-83775000I249999J0D01*
G01*
X76100001Y-83775000D01*
G75*
G02*
X76350000Y-84024999I0J-249999D01*
G01*
X76350000Y-85275001D01*
G75*
G02*
X76100001Y-85525000I-249999J0D01*
G01*
X75474999Y-85525000D01*
G75*
G02*
X75225000Y-85275001I0J249999D01*
G01*
G37*
G36*
G01*
X78150000Y-85275001D02*
X78150000Y-84024999D01*
G75*
G02*
X78399999Y-83775000I249999J0D01*
G01*
X79025001Y-83775000D01*
G75*
G02*
X79275000Y-84024999I0J-249999D01*
G01*
X79275000Y-85275001D01*
G75*
G02*
X79025001Y-85525000I-249999J0D01*
G01*
X78399999Y-85525000D01*
G75*
G02*
X78150000Y-85275001I0J249999D01*
G01*
G37*
M02*
