%TF.GenerationSoftware,KiCad,Pcbnew,5.1.10*%
%TF.CreationDate,2021-07-08T07:49:19-06:00*%
%TF.ProjectId,miata-underglow,6d696174-612d-4756-9e64-6572676c6f77,rev?*%
%TF.SameCoordinates,Original*%
%TF.FileFunction,Soldermask,Bot*%
%TF.FilePolarity,Negative*%
%FSLAX46Y46*%
G04 Gerber Fmt 4.6, Leading zero omitted, Abs format (unit mm)*
G04 Created by KiCad (PCBNEW 5.1.10) date 2021-07-08 07:49:19*
%MOMM*%
%LPD*%
G01*
G04 APERTURE LIST*
%ADD10C,0.800000*%
%ADD11C,6.400000*%
%ADD12O,1.700000X1.950000*%
G04 APERTURE END LIST*
D10*
X86697056Y-88302944D03*
X85000000Y-87600000D03*
X83302944Y-88302944D03*
X82600000Y-90000000D03*
X83302944Y-91697056D03*
X85000000Y-92400000D03*
X86697056Y-91697056D03*
X87400000Y-90000000D03*
D11*
X85000000Y-90000000D03*
D10*
X26697056Y-88302944D03*
X25000000Y-87600000D03*
X23302944Y-88302944D03*
X22600000Y-90000000D03*
X23302944Y-91697056D03*
X25000000Y-92400000D03*
X26697056Y-91697056D03*
X27400000Y-90000000D03*
D11*
X25000000Y-90000000D03*
D10*
X87697056Y-23302944D03*
X86000000Y-22600000D03*
X84302944Y-23302944D03*
X83600000Y-25000000D03*
X84302944Y-26697056D03*
X86000000Y-27400000D03*
X87697056Y-26697056D03*
X88400000Y-25000000D03*
D11*
X86000000Y-25000000D03*
D10*
X26697056Y-23302944D03*
X25000000Y-22600000D03*
X23302944Y-23302944D03*
X22600000Y-25000000D03*
X23302944Y-26697056D03*
X25000000Y-27400000D03*
X26697056Y-26697056D03*
X27400000Y-25000000D03*
D11*
X25000000Y-25000000D03*
G36*
G01*
X59850000Y-25275000D02*
X59850000Y-26725000D01*
G75*
G02*
X59600000Y-26975000I-250000J0D01*
G01*
X58400000Y-26975000D01*
G75*
G02*
X58150000Y-26725000I0J250000D01*
G01*
X58150000Y-25275000D01*
G75*
G02*
X58400000Y-25025000I250000J0D01*
G01*
X59600000Y-25025000D01*
G75*
G02*
X59850000Y-25275000I0J-250000D01*
G01*
G37*
D12*
X56500000Y-26000000D03*
X54000000Y-26000000D03*
X51500000Y-26000000D03*
X49000000Y-26000000D03*
X46500000Y-26000000D03*
G36*
G01*
X38600000Y-92525000D02*
X38600000Y-91075000D01*
G75*
G02*
X38850000Y-90825000I250000J0D01*
G01*
X40050000Y-90825000D01*
G75*
G02*
X40300000Y-91075000I0J-250000D01*
G01*
X40300000Y-92525000D01*
G75*
G02*
X40050000Y-92775000I-250000J0D01*
G01*
X38850000Y-92775000D01*
G75*
G02*
X38600000Y-92525000I0J250000D01*
G01*
G37*
X41950000Y-91800000D03*
X44450000Y-91800000D03*
X46950000Y-91800000D03*
X49450000Y-91800000D03*
X51950000Y-91800000D03*
X54450000Y-91800000D03*
X56950000Y-91800000D03*
X59450000Y-91800000D03*
X61950000Y-91800000D03*
X64450000Y-91800000D03*
X66950000Y-91800000D03*
G36*
G01*
X72600000Y-92525000D02*
X72600000Y-91075000D01*
G75*
G02*
X72850000Y-90825000I250000J0D01*
G01*
X74050000Y-90825000D01*
G75*
G02*
X74300000Y-91075000I0J-250000D01*
G01*
X74300000Y-92525000D01*
G75*
G02*
X74050000Y-92775000I-250000J0D01*
G01*
X72850000Y-92775000D01*
G75*
G02*
X72600000Y-92525000I0J250000D01*
G01*
G37*
X75950000Y-91800000D03*
X78450000Y-91800000D03*
M02*
